<svg width="48" height="48" viewBox="0 0 48 48" fill="none" xmlns="http://www.w3.org/2000/svg">
<g clip-path="url(#clip0_29_5)">
<path d="M39.5569 5.21834C39.1399 4.5819 38.5145 4.56918 37.8109 4.54372C37.7327 4.54372 37.6546 4.54372 37.5634 4.54372C37.4982 4.54372 37.4331 4.54372 37.3549 4.54372C37.0683 4.54372 36.7295 4.54372 36.5731 4.3146C36.3777 4.0473 36.3907 3.51269 36.4168 3.07991C36.4168 2.9399 36.4168 2.81261 36.4168 2.71078C36.3907 1.70521 36.3386 0.636 35.9347 0.279596C35.635 0.0122931 34.736 0.0504793 33.9152 0.0886654C33.6415 0.0886654 33.381 0.114123 33.1595 0.114123H15.5569C15.2051 0.114123 14.8272 0.0886654 14.4624 0.063208C13.7458 -0.000435605 13.0683 -0.0513505 12.5731 0.114123C11.8696 0.355969 11.8174 1.59065 11.7784 2.7617V2.82534C11.7393 3.79272 11.4917 4.53099 10.6839 4.45462C9.74578 4.36552 8.79464 4.34006 8.3777 5.18015C7.86956 6.16027 7.96076 7.19129 8.1562 9.04969C8.18226 9.31699 8.20832 9.59702 8.23438 9.88978H39.8174C39.8305 9.67339 39.8565 9.457 39.8696 9.24062C40.0129 7.57315 40.1432 6.12208 39.5438 5.21834H39.5569Z" fill="#8047F8"/>
<path fill-rule="evenodd" clip-rule="evenodd" d="M10.6971 11.7232C11.1922 18.2403 11.6743 24.7828 12.1694 31.3127C12.43 34.864 12.7036 38.4026 12.9642 41.9539H13.9675C14.0326 42.5139 14.1108 43.1886 14.202 43.9141C14.3714 45.3779 14.5538 46.9944 14.7102 48H14.8274C15.8567 47.6309 22.9577 44.6651 22.9577 32.8656C22.9577 32.8274 22.9577 32.8019 22.9577 32.7637H21.1988C21.1076 32.7637 21.0294 32.7383 20.9642 32.6874C20.8991 32.6365 20.847 32.5728 20.8339 32.4837C20.6646 32.0764 20.5212 31.6436 20.417 31.2108C19.3877 31.7836 18.5668 32.6492 18.0717 33.6929C17.6027 32.6237 17.5506 31.4272 17.9023 30.3198C18.2541 29.2124 18.9968 28.2578 20.0131 27.6213C20.0131 24.1846 21.3421 20.8624 23.7264 18.2912L23.7655 18.253C23.8307 18.1894 23.9219 18.1639 24.0131 18.1639C24.0652 18.1639 24.1173 18.1639 24.1694 18.2021C24.2216 18.2275 24.2607 18.253 24.2997 18.2912C26.7102 20.8624 28.0131 24.21 27.974 27.6723C29.0033 28.2832 29.759 29.2379 30.1238 30.358C30.4756 31.4781 30.3975 32.6746 29.9154 33.7439C29.4333 32.7001 28.6124 31.8218 27.5701 31.2618C27.505 31.6818 27.3877 32.0891 27.2183 32.4837C27.1662 32.6492 27.0489 32.7637 26.9317 32.7637H25.0554C25.0554 32.7637 25.0554 32.8019 25.0554 32.8274C25.0554 32.8274 25.0554 32.8783 25.0554 32.891C25.0815 45.0342 32.6255 47.7836 33.2639 48H33.4854C33.5375 47.0454 33.7199 45.7216 33.9023 44.436C34.0196 43.545 34.1369 42.6794 34.2151 41.9539H35.2313C35.5571 37.4861 35.8958 33.031 36.2346 28.5887C36.6646 22.899 37.0945 17.1965 37.4984 11.4813H10.7623C10.6841 11.4941 10.6841 11.6213 10.6971 11.7486V11.7232Z" fill="#8047F8"/>
</g>
<defs>
<clipPath id="clip0_29_5">
<rect width="32" height="48" fill="white" transform="translate(8)"/>
</clipPath>
</defs>
</svg>
